<svg xmlns="http://www.w3.org/2000/svg" width="850" height="320" viewBox="0 0 850 320" fill="none">
  <rect width="850" height="320" fill="#111218"/>
  
  <g stroke="#8B6FE8" stroke-opacity="0.04" stroke-width="1">
    <line x1="0" y1="0" x2="0" y2="320"/>
    <line x1="170" y1="0" x2="170" y2="320"/>
    <line x1="340" y1="0" x2="340" y2="320"/>
    <line x1="510" y1="0" x2="510" y2="320"/>
    <line x1="680" y1="0" x2="680" y2="320"/>
    <line x1="850" y1="0" x2="850" y2="320"/>
  </g>

  <g stroke="#8B6FE8" stroke-opacity="0.04" stroke-width="1">
    <line x1="0" y1="54" x2="850" y2="54"/>
    <line x1="0" y1="160" x2="850" y2="160"/>
    <line x1="0" y1="266" x2="850" y2="266"/>
  </g>

  <g transform="translate(45, 80) scale(2.2)">
    <circle cx="36" cy="36" r="28" fill="#8B6FE8" opacity="0.12"/>
    <g stroke="#8B6FE8" stroke-width="0.8" opacity="0.3">
      <line x1="14" y1="16" x2="8" y2="30"/><line x1="8" y1="30" x2="18" y2="44"/>
      <line x1="14" y1="16" x2="28" y2="26"/><line x1="8" y1="30" x2="28" y2="26"/>
      <line x1="18" y1="44" x2="28" y2="26"/><line x1="28" y1="26" x2="44" y2="26"/>
      <line x1="36" y1="36" x2="54" y2="44"/><line x1="44" y1="26" x2="58" y2="16"/>
      <line x1="44" y1="26" x2="64" y2="30"/><line x1="58" y1="16" x2="64" y2="30"/>
      <line x1="64" y1="30" x2="54" y2="44"/><line x1="54" y1="44" x2="28" y2="26"/>
    </g>
    <line x1="28" y1="26" x2="36" y2="36" stroke="#8B6FE8" stroke-width="1.2" opacity="0.65"/>
    <line x1="36" y1="36" x2="44" y2="26" stroke="#8B6FE8" stroke-width="1.2" opacity="0.65"/>
    <g fill="#8B6FE8">
      <circle cx="14" cy="16" r="2" opacity="0.55"/><circle cx="8" cy="30" r="2" opacity="0.55"/>
      <circle cx="18" cy="44" r="2" opacity="0.55"/><circle cx="28" cy="26" r="3.2" opacity="0.85"/>
      <circle cx="36" cy="36" r="4.5" opacity="1"/><circle cx="44" cy="26" r="3.2" opacity="0.85"/>
      <circle cx="58" cy="16" r="2" opacity="0.55"/><circle cx="64" cy="30" r="2" opacity="0.55"/>
      <circle cx="54" cy="44" r="2" opacity="0.55"/>
    </g>
  </g>

  <text x="230" y="175" font-family="Space Grotesk, sans-serif" font-weight="300" font-size="90" fill="#F2F2F8" fill-opacity="0.6" letter-spacing="3">Laravel</text>
  
  <g transform="translate(-10, 0)">
    <circle cx="566" cy="125" r="7" fill="#8B6FE8" opacity="0.45"/>
    <circle cx="566" cy="152" r="11" fill="#8B6FE8"/>
    <circle cx="566" cy="179" r="7" fill="#8B6FE8" opacity="0.45"/>
    <line x1="566" y1="132" x2="566" y2="141" stroke="#8B6FE8" stroke-width="2" opacity="0.35"/>
    <line x1="566" y1="163" x2="566" y2="172" stroke="#8B6FE8" stroke-width="2" opacity="0.35"/>
  </g>

  <text x="581" y="175" font-family="Space Grotesk, sans-serif" font-weight="700" font-size="90" fill="#8B6FE8" letter-spacing="3">Brain</text>

  <text x="232" y="222" font-family="Space Mono, monospace" font-size="18" fill="#5C5E80" letter-spacing="4">Architecture Visualizer for Laravel</text>

  <rect x="232" y="248" width="148" height="24" rx="5" fill="#3EDAA0" fill-opacity="0.08" stroke="#3EDAA0" stroke-opacity="0.2" stroke-width="1"/>
  <text x="306" y="264" text-anchor="middle" font-family="Space Mono, monospace" font-size="11" fill="#3EDAA0" letter-spacing="2">by LaraMint</text>

  <g fill="#8B6FE8">
    <circle cx="780" cy="100" r="4" opacity="0.15"/>
    <circle cx="810" cy="140" r="2.5" opacity="0.19"/>
    <circle cx="790" cy="180" r="2" opacity="0.27"/>
  </g>
</svg>
